<svg xmlns="http://www.w3.org/2000/svg" width="500" viewBox="0 0 375 375" height="500" version="1.0"><defs><clipPath id="a"><path d="M27 112.258h103.41V242H27Zm0 0"/></clipPath><clipPath id="b"><path d="M28 112.258h101v150H28Zm0 0"/></clipPath></defs><path fill="#fff" d="M-37.5-37.5h450v450h-450z"/><path fill="#fff" d="M-37.5-37.5h450v450h-450z"/><path fill="#ffbd59" d="M132.668 176.863c11.394-5.894 24.695-7.25 37.332-7.562 13.605-.348 27.176.543 40.703 1.785 13.688 1.277 27.332 2.867 41.055 3.836 6.824.469 13.687.738 20.547.777 6.437.04 12.949.078 19.382-.699 6.477-.773 12.95-2.598 17.915-7.055 4.34-3.914 7.48-9.886 6.277-15.816-.504-2.48-4.379-1.899-4.379.582.04 5.27-2.016 9.73-6.086 13.062-4.574 3.762-10.7 5.079-16.398 5.778-12.95 1.512-26.13 1.008-39.118.117-26.363-1.863-52.644-6.164-79.125-5.234-13.488.425-27.136 1.976-38.882 9.109-.852.504-.118 1.785.777 1.32ZM137.785 168.254c11.55-4.223 23.492-5.23 35.703-5.309.66 0 .89-1.125.157-1.203-12.211-1.82-24.93 1.086-36.133 6.008-.23.117-.04.621.273.504ZM305.063 175.04a20.09 20.09 0 0 0 11.671-5.97c1.59-1.629 2.946-3.488 3.875-5.543.778-1.629 2.211-4.535 1.047-6.203-.543-.777-1.472-.89-2.172-.273-1.316 1.125-1.125 3.683-1.664 5.312a20.032 20.032 0 0 1-2.636 5.196c-2.52 3.449-6.125 5.968-10.235 7.093-.273.04-.156.426.113.387Zm0 0"/><g clip-path="url(#a)"><path d="M122.621 210.598c-3.957 3.375-9.414 5.214-12.574 9.175-.266.332-.512.676-.738 1.04-.11.16-.204.328-.301.496-.035.062-.067.125-.102.183-1.133 2.102-1.547 4.492-2.082 6.844-.133.578-.277 1.16-.43 1.73-.257.907-.566 1.79-.976 2.63l-.059.12c-1.304 2.621-3.527 4.641-6.12 6.036a19.162 19.162 0 0 1-4.356 1.699c-.367.101-.738.183-1.106.258a31.905 31.905 0 0 1-3.547.507c-3.44.301-6.863.118-10.421.055-.36-.008-.723-.008-1.09-.012-.364.004-.73.004-1.09.012-1.242.02-2.465.059-3.684.082-1.894.043-3.765.055-5.64-.058a32.824 32.824 0 0 1-4.645-.586 20.188 20.188 0 0 1-4.297-1.383c-2.496-1.125-4.742-2.79-6.293-4.973a11.92 11.92 0 0 1-1.05-1.762 15.373 15.373 0 0 1-.891-2.363c-.438-1.476-.723-3.016-1.082-4.52-.371-1.57-.828-3.105-1.617-4.507-.098-.168-.192-.332-.297-.496a10.24 10.24 0 0 0-.742-1.04c-3.16-3.96-8.614-5.796-12.575-9.171-5.543-4.735-7.879-12.457-7.472-19.739.406-7.28 3.222-14.21 6.547-20.695 10.957-21.41 27.492-39.34 43.922-56.922l.91-.968.91.968c16.43 17.582 32.965 35.512 43.922 56.922 3.324 6.488 6.144 13.414 6.547 20.695.406 7.278-1.926 15-7.473 19.739Zm0 0"/></g><path d="M109.309 220.813c-.11.16-.204.328-.301.496-.035.062-.067.125-.102.183-1.133 2.102-1.547 4.492-2.082 6.844-.133.578-.277 1.16-.43 1.73-.257.907-.566 1.79-.976 2.63l-.059.12c-1.304 2.621-3.527 4.641-6.12 6.036a19.162 19.162 0 0 1-4.356 1.699c-.367.101-.738.183-1.106.258a31.905 31.905 0 0 1-3.547.507c-3.44.301-6.863.118-10.421.055-.36-.008-.723-.008-1.09-.012-.364.004-.73.004-1.09.012-1.242.02-2.465.059-3.684.082-1.894.043-3.765.055-5.64-.058a32.824 32.824 0 0 1-4.645-.586 20.188 20.188 0 0 1-4.297-1.383c-2.496-1.125-4.742-2.79-6.293-4.973a11.92 11.92 0 0 1-1.05-1.762 15.373 15.373 0 0 1-.891-2.363c-.438-1.476-.723-3.016-1.082-4.52-.371-1.57-.828-3.105-1.617-4.507-.098-.168-.192-.332-.297-.496h61.176Zm0 0"/><path fill="#c48355" d="m57.21 195.707 21.505-11.883 21.984 12.059.989 24.3-45.106.36Zm0 0"/><path fill="#fff" d="M86.719 228.969c.039-.051.097-.145 0 0Zm0 0"/><g clip-path="url(#b)"><path fill="#fff" d="M127.414 189.629a3.724 3.724 0 0 0-.629-.48.746.746 0 0 0-.5-.344c-1.969-.446-3.828-1.29-5.426-2.524-1.53-1.18-3.039-2.777-3.476-4.715-.375-1.66.488-3.554 2.195-4.05 1.582-.457 3.367.488 3.602 2.183.117.875-.196 1.793-.93 2.301-.66.457-1.57.61-2.3.258-.419-.203-.93-.113-1.177.308-.218.371-.113.973.305 1.176 2.203 1.055 4.98-.078 5.672-2.46.71-2.446-.895-5.016-3.379-5.497-2.52-.484-4.937 1.11-5.617 3.567-.727 2.62.805 5.207 2.598 6.996a15.309 15.309 0 0 0 3.668 2.691c-.31.137-.606.3-.88.484-1.035.704-1.859 1.75-2.066 3.012-.219 1.36.211 2.715 1.34 3.54.973.718 2.39.878 3.41.16.973-.692 1.54-1.981 1.117-3.145-.16-.43-.586-.73-1.054-.598-.422.117-.762.621-.602 1.055.195.547-.09 1.238-.73 1.41-.68.176-1.414-.324-1.684-.937-.805-1.852 1.234-3.387 2.805-3.72.789-.167 1.738-.1 2.39.423.645.52.954 1.41 1.043 2.207.172 1.62-.492 3.257-1.629 4.398-3.117 3.133-7.695.45-11.421.586-3.73.14-7.13 2.774-8.297 6.309-1.086 3.3-.211 7.257 2.379 9.554-.036.008-.067.02-.098.032-2.176.68-4.414 1.777-5.773 3.613v-20.527c.78.167 1.566.304 2.363.402 2.183.254 4.582.289 6.672-.477 2.09-.765 3.648-2.351 4.297-4.492.636-2.094.304-4.5-1.055-6.238-1.266-1.621-3.477-2.488-5.5-1.942-1.988.54-3.457 2.504-3.461 4.555 0 2.082 1.492 3.961 3.465 4.543 1.066.313 1.515-1.348.457-1.66-1.653-.484-2.637-2.34-1.985-3.965.672-1.676 2.524-2.312 4.145-1.64 3.36 1.386 3.191 6.496.52 8.464-1.473 1.086-3.407 1.29-5.18 1.285-2.13-.011-4.227-.386-6.262-.98-4.183-1.234-7.988-3.418-11.715-5.637-2.086-1.242-4.215-2.476-6.172-3.914 4.02 1.66 8.356 2.762 12.715 2.348 4.114-.383 8.121-2.192 10.824-5.371 1.457-1.715 2.504-3.77 2.832-6.008.032-.211.004-.414-.07-.594 1.75-.597 3.332-1.832 4.403-3.344 1.96-2.77 2.37-6.511 1.425-9.734-.972-3.328-3.433-6.047-6.437-7.707-6.89-3.809-15.543-1.738-21.543 2.828-3.16 2.406-5.488 5.555-6.93 9.25-.098.242-.187.48-.273.723v-17.403c2.953 2.57 6.742 4.36 10.703 4.188 4.023-.172 8.195-2.398 9.832-6.215 1.472-3.43.664-7.941-2.328-10.308-1.453-1.153-3.336-1.75-5.18-1.567.191-.535.3-1.097.309-1.66.02-1.363-.582-2.672-1.551-3.625-2.215-2.195-5.54-2.191-8.23-.93a10.165 10.165 0 0 0-3.473 2.707c-.035-1.367.015-2.73.168-4.09.152-1.343.328-2.812.879-4.062.402-.906 1.164-1.867 2.226-1.984.852-.102 1.754.468 2.047 1.277.363 1.02-.285 2.078-1.23 2.477-.426.183-.52.816-.305 1.18.258.44.746.484 1.176.304 1.32-.559 2.207-2.016 2.172-3.438-.032-1.527-1.082-2.8-2.485-3.32-1.46-.539-3.055.05-4.086 1.14-.254.27-.465.563-.652.868v-2.785c0-2.625-.067-5.063-.18-7.094l-.91-.969-.91.969c-.117 2.031-.18 4.469-.18 7.094v2.156c-.953-1.14-2.363-1.844-3.875-1.547-1.387.274-2.637 1.461-2.87 2.867-.274 1.61.581 3.371 2.112 4.02.426.18.922.125 1.176-.309.211-.36.121-.992-.308-1.176-.832-.351-1.438-1.195-1.317-2.132.11-.84.903-1.524 1.727-1.625 1.031-.125 1.918.683 2.394 1.515.567.985.793 2.164.961 3.301v4.957a10.37 10.37 0 0 0-2.187-1.82c-2.493-1.551-5.883-2.04-8.39-.246-1.09.777-1.99 1.914-2.247 3.257a5.076 5.076 0 0 0 .21 2.688 7.433 7.433 0 0 0-3.983.773c-3.442 1.754-4.864 6.114-3.997 9.727.97 4.004 4.786 6.762 8.711 7.414 4.325.723 8.563-.941 11.88-3.664v15.992c-1.036-2.59-2.524-4.988-4.606-7.043-2.762-2.722-6.29-4.73-10-5.832-3.684-1.094-7.75-1.238-11.403.086-3.234 1.172-6.152 3.383-7.808 6.445-1.61 2.97-1.922 6.711-.672 9.868.984 2.488 3.004 4.68 5.54 5.53-.067.177-.09.372-.063.579.59 4.016 3.433 7.367 6.902 9.32 4.047 2.285 8.805 2.543 13.293 1.64 1.844-.366 3.625-.929 5.371-1.608-1.848 1.324-3.836 2.472-5.785 3.632-3.727 2.22-7.531 4.403-11.715 5.637-2.035.598-4.137.969-6.262.98-1.777.004-3.707-.199-5.183-1.285-2.668-1.968-2.836-7.078.52-8.464 1.624-.672 3.48-.032 4.148 1.64.652 1.625-.332 3.48-1.985 3.965-1.058.309-.61 1.973.457 1.66 1.973-.582 3.465-2.46 3.465-4.543-.004-2.05-1.469-4.015-3.46-4.554-2.024-.543-4.235.324-5.505 1.94-1.355 1.74-1.687 4.145-1.054 6.24.652 2.14 2.21 3.726 4.3 4.491 2.09.766 4.489.735 6.672.477a26.062 26.062 0 0 0 2.957-.54c.02.145.075.282.168.4a.79.79 0 0 0-.015.167v20.547c-1.133-1.851-3.13-3.031-5.164-3.781-.336-.125-.68-.238-1.028-.344 2.281-2.02 3.149-5.277 2.664-8.312-.578-3.63-3.644-6.727-7.254-7.399-2.132-.402-4.238.114-6.336.508-1.894.356-3.914.547-5.597-.566-1.305-.864-2.235-2.356-2.438-3.907-.215-1.613.395-3.636 2.246-3.859 1.817-.219 4.313 1.117 4.121 3.207-.074.797-.722 1.57-1.574 1.535-.761-.027-1.21-.797-.976-1.437.156-.438-.18-.942-.602-1.059-.476-.129-.894.164-1.058.602-.356.988.007 2.16.773 2.867.828.758 1.988.933 3.023.516 2.442-.989 2.657-4.047 1.145-5.926-.516-.64-1.219-1.16-2.004-1.516a15.938 15.938 0 0 0 2.945-2.02c1.88-1.64 3.7-4.042 3.477-6.675-.211-2.492-2.23-4.66-4.809-4.66-2.515.004-4.687 2.058-4.515 4.636.093 1.38.812 2.637 2.039 3.313a4.122 4.122 0 0 0 3.789.11c.418-.204.527-.802.308-1.177-.25-.425-.757-.507-1.175-.308-1.36.656-3.032-.352-3.235-1.813-.242-1.785 1.262-3.113 2.973-3.03 1.738.077 2.953 1.773 2.914 3.421-.043 2-1.559 3.727-2.984 4.973-1.711 1.492-3.797 2.504-6.004 3a.756.756 0 0 0-.524.375c-1.558 1.03-2.21 3.066-2.011 4.925a7.45 7.45 0 0 0 2.91 5.121c1.824 1.391 4.066 1.508 6.265 1.184 2.196-.32 4.47-1.121 6.7-.633a7.662 7.662 0 0 1 4.511 2.965c2.317 3.242 1.746 8.371-1.808 10.45-1.692-.47-3.368-1.005-4.73-2.11-1.919-1.555-3.016-4.285-1.579-6.54.625-.98 1.715-1.526 2.871-1.483 1.05.035 1.985.656 2.3 1.675.31.996.028 2.2-.944 2.602-.856.351-1.965.11-2.418-.727-.528-.972-2.016-.105-1.485.868.64 1.183 2.032 1.828 3.356 1.718 1.468-.12 2.68-1 3.152-2.422.461-1.394.059-3.007-.902-4.09-1.051-1.187-2.766-1.535-4.27-1.226-3.277.664-4.738 4.469-3.707 7.426.551 1.57 1.617 2.867 2.953 3.84 1.356.98 2.977 1.539 4.57 2.007 2.895.852 7.012 1.672 8.087 4.977.011.043.035.078.05.113h-7.527c.383.48.734.989 1.04 1.535.788 1.399 1.241 2.934 1.616 4.508a15.426 15.426 0 0 1 .215-4.32h7.524a17.484 17.484 0 0 0 1.246 9.523c-.61.188-1.22.38-1.828.559a96.42 96.42 0 0 1-4.801 1.273c-.504-.8-.93-1.644-1.274-2.515.239.812.524 1.605.89 2.367.298.621.653 1.207 1.048 1.758.75-.18 1.496-.367 2.242-.57a15.06 15.06 0 0 0 4.059 5.538 20.279 20.279 0 0 0 4.296 1.387 32.74 32.74 0 0 0 4.645.582c.562-.422 1.11-.867 1.637-1.328.066.164.18.305.351.383a13.44 13.44 0 0 0 3.653 1.004c1.214.156 2.449.14 3.683-.05v8.058c0 7.062.485 12.78 1.09 12.78.602 0 1.09-5.722 1.09-12.78V239.43c2.023.25 4.094-.13 5.828-1.23 1.434-.903 2.54-2.204 3.258-3.716a36.768 36.768 0 0 0 6.265 3.094 9.133 9.133 0 0 1-4.93 3.75 32.019 32.019 0 0 0 3.548-.504c.367-.078.734-.164 1.101-.262.758-.69 1.418-1.5 1.938-2.394a35.73 35.73 0 0 0 2.418.7c2.601-1.4 4.816-3.415 6.12-6.04.255-.902.438-1.832.59-2.738.149-.004.297-.008.446-.008.16-.574.3-1.152.433-1.734-1.546.05-3.09.035-4.636-.051a11.944 11.944 0 0 0 .8-6.79h5.919c.03-.062.066-.124.101-.187.305-.543.656-1.054 1.04-1.53h-7.09l.034-.071c.926-2.852 4.254-3.895 6.832-4.625 3.192-.906 6.594-1.973 8.286-5.094.773-1.426 1.039-3.082.636-4.66-.37-1.477-1.355-2.86-2.765-3.5-1.422-.653-3.168-.688-4.524.16-1.234.777-1.972 2.227-1.922 3.684.063 1.632 1.118 3.105 2.762 3.441 1.5.3 3.18-.238 3.938-1.637.527-.972-.961-1.843-1.485-.863-.398.723-1.32 1.031-2.093.82-.418-.113-.75-.27-1.024-.632-.297-.399-.394-.88-.379-1.352.031-.996.656-1.93 1.637-2.25 1.062-.34 2.308-.074 3.125.695 1.902 1.801 1.324 4.758-.309 6.504-1.453 1.547-3.453 2.215-5.46 2.781-3.087-1.812-4.055-6.136-2.493-9.296a7.805 7.805 0 0 1 3.906-3.704c2.024-.855 4.125-.496 6.204-.086 2.32.458 4.73.86 6.957-.19 1.757-.83 3.086-2.481 3.695-4.31.644-1.937.441-4.476-1.098-5.957Zm-47.61-51.715c.16-.21.212-.488.169-.773-.035-.25-.09-.5-.149-.743a8.01 8.01 0 0 1 2.856-3.925c1.742-1.29 4.168-2.086 6.265-1.211 1.72.715 2.907 2.465 2.313 4.324-.235.75-.809 1.465-1.543 1.691a2.405 2.405 0 0 1-2.149-.394c-.625-.465-.921-1.246-.535-1.996.41-.809 1.258-1.25 2.047-.953.434.164.942-.18 1.055-.602.133-.48-.164-.887-.598-1.055-1.226-.46-2.637.059-3.472 1.02-.891 1.023-1.2 2.39-.622 3.64.489 1.06 1.575 1.82 2.711 2.063l.153.023a5.378 5.378 0 0 0-.817 2.133c-.351 2.395 1.125 4.942 3.528 5.574 2.289.602 4.945-.914 5.398-3.285.09-.453-.129-.925-.598-1.054-.421-.118-.968.14-1.058.597-.27 1.403-1.754 2.414-3.16 2.11-1.535-.332-2.57-1.934-2.442-3.465.14-1.68 1.496-3.074 3.082-3.5 1.649-.446 3.532.023 4.813 1.144 2.246 1.953 2.898 5.418 1.765 8.118-1.28 3.062-4.601 4.953-7.804 5.234-4.27.375-8.301-1.824-11.203-4.805v-9.91Zm-3.8 96.102c-.055-.012-.113-.02-.172-.036a4.987 4.987 0 0 1-.402-.093c-.02-.004-.04-.012-.059-.016a30.323 30.323 0 0 0 2.254-4.027v4.183a6.748 6.748 0 0 1-.793.047 4.89 4.89 0 0 1-.414-.015c-.059-.004-.117-.004-.176-.012-.015-.004-.129-.008-.16-.012h.043c.148 0-.086-.012-.121-.02Zm1.293-12.528c-1.727 2.63-4.723 4.133-7.54 5.41-.75-1.57-1.034-3.457-.773-5.14.008-.094.012-.18.004-.27Zm-5.332-1.718v-14.352c1.887-1.938 3.773-3.879 5.656-5.816v20.168Zm3.02 6.289a14.144 14.144 0 0 0 2.636-2.23v1.054a28.863 28.863 0 0 1-2.168 5.449 5.066 5.066 0 0 1-.289-.148 6.73 6.73 0 0 1-.582-.348 6.397 6.397 0 0 1-.266-.184c-.035-.023-.07-.047-.105-.074-.008-.012-.02-.02-.023-.023a9.335 9.335 0 0 1-.508-.453 8.389 8.389 0 0 1-.442-.477c-.043-.047-.078-.094-.113-.137-.012-.015-.023-.023-.031-.035-.063-.074-.117-.164-.172-.242a5.766 5.766 0 0 1-.422-.719c.852-.43 1.688-.898 2.48-1.43Zm-6.778-73.442c-3.293.121-6.816-1.351-8.613-4.21-1.574-2.505-1.461-5.966.375-8.313 1.008-1.293 2.55-2.117 4.199-2.16 1.781-.055 3.477.851 4.219 2.511.738 1.633.07 3.684-1.602 4.434-1.515.687-3.387-.32-3.703-1.934-.082-.457-.633-.715-1.055-.597-.476.129-.687.593-.597 1.054.394 2.051 2.52 3.567 4.586 3.414 2.132-.168 3.933-1.918 4.312-4.007.246-1.352-.082-2.7-.8-3.82.921-.173 1.804-.641 2.39-1.356.93-1.137 1.047-2.711.2-3.938-.825-1.203-2.372-1.996-3.817-1.457-.43.164-.73.578-.598 1.055.117.418.621.766 1.055.598.691-.254 1.402.027 1.875.672.465.632.453 1.386 0 1.933-.496.602-1.266.879-2.016.836-.738-.039-1.418-.555-1.812-1.258-.922-1.652-.118-3.558 1.414-4.508 1.969-1.207 4.414-.718 6.289.426a8.275 8.275 0 0 1 3.105 3.383v12.82c-2.539 2.45-5.832 4.293-9.414 4.418Zm-23.629 16.348a10.281 10.281 0 0 1 .895-8.293c1.484-2.531 3.972-4.395 6.718-5.36 6.414-2.273 13.887.235 18.82 4.61.09.074.165.16.25.238-2.695-1.703-6.066-2.465-9.195-1.719-2.89.7-5.629 2.954-6.175 5.922a5.326 5.326 0 0 0-.594-.593c-1.383-1.18-3.258-1.778-5.059-1.344-1.672.402-3.082 1.695-3.644 3.316-.574 1.653-.008 3.582 1.277 4.742.606.547 1.348.942 2.164 1.059.457.062.922-.113 1.055-.602.11-.398-.137-.992-.602-1.054-1.238-.172-2.226-1.184-2.386-2.438-.172-1.332.746-2.547 1.89-3.117 1.254-.625 2.735-.305 3.848.469 1.23.851 1.875 2.344 1.926 3.808.097 2.895-2.024 5.754-5.094 5.59-2.918-.16-5.23-2.582-6.094-5.234Zm12.883.52c.27.253.562.484.89.675.06.035.118.063.176.094a5.477 5.477 0 0 0-1.441.973 7.746 7.746 0 0 0 .371-1.739Zm5.113 16.324c-3.746-.286-7.363-1.946-9.836-4.805a10.467 10.467 0 0 1-2.425-5.11c.242.02.484.036.738.032 1.789-.024 3.336-.824 4.469-2.043-.59 2.254.214 4.777 1.835 6.558 2.34 2.567 6.008 3.45 9.32 3.848a27.74 27.74 0 0 0 5.462.113c-3.078 1.047-6.309 1.66-9.563 1.407Zm6.856-3.047c-2.84-.051-5.93-.453-8.493-1.774-2.218-1.148-4.074-3.277-3.91-5.918.16-2.52 2.727-4.21 5.114-3.504 1.203.36 2.379 1.391 2.343 2.735-.023 1.148-1.18 2.125-2.246 1.387-.383-.266-.953-.07-1.175.308-.247.426-.07.914.308 1.176 1.387.96 3.324.426 4.238-.922.961-1.414.676-3.29-.343-4.574a5.044 5.044 0 0 0-2.157-1.582l.032-.02c1.535-1.113 2.3-3.164 1.457-4.937-.422-.89-1.258-1.59-2.246-1.723-1.008-.129-2.012.313-2.54 1.184-.578.949.91 1.812 1.485.867.219-.352.695-.445 1.066-.293.469.191.778.723.856 1.207.172 1.023-.532 2.11-1.457 2.523-1.078.48-2.403.059-3.207-.738-.922-.89-1.22-2.3-.965-3.531.558-2.68 3.2-4.352 5.762-4.696 2.816-.37 5.683.61 7.914 2.301 2.507 1.899 4.277 4.61 5.636 7.414.313 1.13.547 2.278.72 3.438v8.531c-2.657.8-5.411 1.195-8.192 1.14Zm-2.953 9.457c2.296-1.301 4.585-2.649 6.808-4.07 1.512-.973 2.988-2.024 4.336-3.215v10.808H59.086c2.559-.933 5.012-2.176 7.39-3.523Zm-8.86 27.55v-22.312h19.696c-2.235 2.3-4.47 4.594-6.704 6.895a.94.94 0 0 0-.148.199.808.808 0 0 0-.215.566v14.653Zm1.801 1.72h7.883a11.02 11.02 0 0 0 .898 6.1 94.742 94.742 0 0 1-7.547 2.895 15.366 15.366 0 0 1-1.215-8.554c.02-.149.016-.297-.019-.442Zm6.91 19.241c-.101.07-.207.133-.305.208-.02-.004-.039-.016-.058-.016-3.942-.93-7.399-3.758-9.008-7.488a94.738 94.738 0 0 0 6.57-2.137c.121-.043.239-.09.356-.133.676 3.129 3.43 5.156 6.18 6.457a27.616 27.616 0 0 1-3.735 3.11Zm1.102-6.832c-.985-.93-1.672-2.027-1.93-3.355a100.61 100.61 0 0 0 4.344-1.805c.375-.172.746-.336 1.117-.508.781 1.57 2.094 2.813 3.66 3.583a29.447 29.447 0 0 1-3.328 4.515.704.704 0 0 0-.156-.098c-1.328-.613-2.649-1.324-3.707-2.328Zm3.726 5.063s-.015-.004-.02-.008a31.578 31.578 0 0 0 3.2-3.613 7.15 7.15 0 0 0 3.289.402v3.914c-2.152.406-4.453.172-6.469-.695Zm30.078-17.473c.454 2.16.2 4.453-.77 6.446a.965.965 0 0 0-.073.21 52.038 52.038 0 0 1-7.063-1.136 9.425 9.425 0 0 0 .02-5.52Zm.235-37.492c-3.684 2.082-8.051 2.281-12.13 1.441a30.93 30.93 0 0 1-3.624-.996c1.344.106 2.695.118 4.035.024 3.422-.235 7.11-.942 9.84-3.145 2.125-1.718 3.437-4.644 2.773-7.32a6.151 6.151 0 0 0 1.922 1.398 6.234 6.234 0 0 0 3.246.528c-.594 3.508-3.011 6.344-6.062 8.07Zm-8.196-27.988c3.223-1.293 6.82-1.918 10.266-1.235 2.91.575 5.645 2.02 7.617 4.254a10.5 10.5 0 0 1 2.547 8.004c-.289 2.824-1.918 5.567-4.578 6.727-1.234.539-2.71.699-3.965.16-1.281-.55-2.273-1.73-2.734-3.031-.5-1.418-.5-3.07.203-4.43.656-1.27 1.91-2.238 3.355-2.39 1.317-.141 2.645.488 3.336 1.624a2.79 2.79 0 0 1-.355 3.418 2.621 2.621 0 0 1-1.613.82c-.461.063-.707.653-.598 1.055.137.5.598.664 1.058.602 1.696-.238 3.075-1.668 3.516-3.285.457-1.7-.2-3.531-1.52-4.664a5.274 5.274 0 0 0-4.94-1.09 6.03 6.03 0 0 0-2.919 1.883 6.545 6.545 0 0 0-.933-2.356c-.961-1.484-2.395-2.543-4.02-3.199-3.277-1.32-7.18-.633-10.148 1.152-.09.055-.172.114-.266.172 1.945-1.789 4.25-3.21 6.691-4.191Zm7.485 15.262a5.834 5.834 0 0 0-1.45-.977c.399-.211.766-.473 1.09-.777.051.593.176 1.18.36 1.754Zm-19.82-1.56c2.398-4.933 6.5-9.866 12.472-9.792 2.621.031 5.473 1.293 6.559 3.824.508 1.168.52 2.602-.11 3.73-.586 1.04-1.73 1.715-2.93 1.665-1.171-.051-2.238-1.067-2.316-2.254-.039-.578.176-1.2.657-1.551.394-.281 1.011-.266 1.28.176.575.941 2.055.078 1.481-.867a2.532 2.532 0 0 0-2.187-1.215c-.922-.004-1.742.5-2.278 1.226-1.058 1.418-.773 3.34.29 4.664.257.325.562.594.89.817a5.353 5.353 0 0 0-1.262.703c-1.46 1.113-2.293 3.031-1.574 4.816.703 1.746 2.922 2.692 4.567 1.555.382-.266.558-.754.308-1.176-.222-.379-.793-.574-1.176-.304-.906.628-1.968-.004-2.199-1-.258-1.125.496-2.184 1.422-2.735 2.184-1.3 5.137-.164 5.836 2.285.7 2.442-.863 4.926-2.856 6.223-2.386 1.555-5.417 2.078-8.214 2.254-3.274.2-6.547-.207-9.668-1.184-.192-3.925-.035-8.039 1.007-11.86Zm-1.13 15.22c1.344 1.195 2.825 2.246 4.337 3.215 2.222 1.421 4.515 2.77 6.808 4.074 2.379 1.344 4.832 2.582 7.39 3.52H79.81Zm0 12.527h20.75v22.313h-12.18v-14.356c.048-.273-.015-.57-.233-.746-2.778-2.336-5.56-4.668-8.34-7.004v-.207Zm0 2.441 6.852 5.754v14.118H79.81Zm0 21.59h11.727a7.912 7.912 0 0 1 .13 5.106 52.355 52.355 0 0 1-5.853-1.938 49.441 49.441 0 0 1-6.003-2.91Zm0 2.223a53.153 53.153 0 0 0 7.57 3.348c-.015.066-.03.132-.03.207-.004.082-.008.164-.016.242 0 .004-.004.031-.004.054a3.778 3.778 0 0 1-.113.461c-.024.075-.047.153-.078.227 0 .008 0 .012-.004.023a3.642 3.642 0 0 1-.246.453c-.04.063-.078.126-.125.188-.004 0-.004.004-.008.008 0 0 0 .004-.004.004 0 .008-.004.008-.012.015-.004.012-.015.028-.023.043-.098.11-.2.22-.309.32-.058.055-.113.11-.176.16 0 0-.003 0-.003.005-.016.011-.036.02-.051.039a3.31 3.31 0 0 1-.426.254.772.772 0 0 0-.215.175 36.818 36.818 0 0 1-1.844-1.66 33.989 33.989 0 0 1-3.882-4.527Zm0 2.84a35.73 35.73 0 0 0 3.06 3.281c-.044.035-.083.063-.126.098a8.018 8.018 0 0 1-1.281.75 2.74 2.74 0 0 1-.215.101c-.02.004-.14.059-.18.07-.18.07-.359.133-.546.188-.23.07-.47.125-.711.176Zm.07 11.16c-.023-.004-.05-.004-.07-.008v-4.75c1.59-.242 3.09-.941 4.337-1.96 1.05.91 2.152 1.753 3.296 2.534-1.238 2.91-4.41 4.707-7.558 4.184Zm13.243-3.332a.837.837 0 0 0-.308.297 35.744 35.744 0 0 1-5.883-3.613c1.183-.75 1.968-2.06 2.113-3.45 2.36.742 4.77 1.32 7.207 1.735a4.578 4.578 0 0 1-.023.332c0 .023 0 .054-.004.066a6.589 6.589 0 0 1-.223 1.008c-.176.574-.328.91-.652 1.445a6.119 6.119 0 0 1-2.22 2.18Zm10.805-4.305c.097.004.191 0 .285.004-.473 2.75-1.285 5.746-3.754 7.29a35.207 35.207 0 0 1-5.883-1.884 8.117 8.117 0 0 0 3.375-5.879c1.98.266 3.977.426 5.977.47Zm0 0"/></g><path d="M156.16 202.838c4.813 0 8.012-1.066 10.817-3.101-.176-.992-.422-2.38-.274-3.844-3.101 2.926-6.547 3.945-10.07 3.945-5.953 0-8.93-2.73-8.93-6.75 0-4.265 3.524-6.672 9.078-6.644 2.481.023 5.93.617 9.922 3.023a14.795 14.795 0 0 1 0-3.941c-3.968-1.637-7.27-2.059-10.144-2.059-8.063 0-13.172 3.348-13.172 9.621 0 6.004 4.613 9.75 12.773 9.75ZM185.825 197.803c-1.613 1.313-4.688 2.11-7.07 2.156-3.57.051-5.133-1.437-5.457-3.742 2.554-.078 6.796-.078 12.43.024.519-4.985-3.376-7.64-8.337-7.64-5.035 0-8.21 2.628-8.21 7.093 0 4.414 3.1 7.07 9.128 7.07 2.653 0 5.406-.52 7.516-1.562-.223-.918-.223-2.457 0-3.399Zm-8.434-6.547c2.383 0 3.992 1.313 4.293 3.77-2.902.047-6.054.047-8.433-.027.12-2.454 1.66-3.743 4.14-3.743ZM188.553 202.416h4.316v-5.359c0-3.125 1.461-5.305 4.117-5.305 2.332 0 3.57 1.883 3.57 4.836v5.828h4.216c-.418-2.406-.32-5.457-.32-8.085 0-3.075-1.29-5.704-5.134-5.704-3.226 0-5.632 2.254-6.601 5.282h-.344c.121-1.887.32-3.399.793-5.332-1.043.468-2.953.77-4.613.867.543 5.11.543 9.055 0 12.972ZM224.59 182.647c-1.09.473-3.372.719-4.712.82.2 1.489.422 4.266.496 9.797h-.324c-1.039-2.406-2.875-4.637-6.45-4.637-3.917 0-6.597 2.727-6.597 6.747 0 4.316 3.051 7.44 7.617 7.44 2.95 0 4.91-1.315 5.829-3.773a28.32 28.32 0 0 1-.274 3.375h4.117c-.547-3.449-.593-15.972.297-19.769Zm-8.606 17.809c-2.68 0-4.961-1.66-4.961-4.836 0-2.555 1.539-4.266 4.191-4.266 3.746 0 5.133 3.273 5.235 6.324-1.168 2.281-3 2.778-4.465 2.778ZM229.698 187.14c1.836 0 2.777-.524 2.777-1.716 0-1.187-.941-1.758-2.777-1.758-1.688 0-2.555.57-2.555 1.758 0 1.192.867 1.715 2.555 1.715Zm-2.11 1.933c.324 4.59.324 8.804 0 13.343h4.27c-.301-4.562-.301-8.78 0-13.343-1.442.297-2.781.246-4.27 0ZM245.523 202.416h5.68c-2.458-1.636-5.258-5.058-7.294-7.39 3.274-1.29 5.954-3.621 6.625-6.3-1.367.495-3.996.57-5.359.644-.348 2.53-3.473 5.183-6.101 5.53-.075-4.339.074-9.026.644-11.98-1.34.52-3.2.746-4.687.82.57 4.512.57 13.84 0 18.676h4.367c-.125-1.66-.25-3.917-.301-6.375.496 0 1.02-.05 1.516-.148 2.058 2.754 3.867 4.54 4.91 6.523ZM254.921 187.14c1.836 0 2.778-.524 2.778-1.716 0-1.187-.942-1.758-2.778-1.758-1.687 0-2.555.57-2.555 1.758 0 1.192.868 1.715 2.555 1.715Zm-2.11 1.933c.325 4.59.325 8.804 0 13.343h4.27c-.3-4.562-.3-8.78 0-13.343-1.441.297-2.78.246-4.27 0ZM276.45 202.416c-.669-2.156-.817-4.488-.844-7.664 0-4.515-2.825-6.101-7.688-6.101-3.25 0-5.703.793-7.566 1.66.176.844.176 2.582 0 3.547 1.441-1.387 4.117-2.43 6.996-2.43 3.57 0 4.34 1.465 4.465 3.696h-4.317c-5.086 0-7.566 1.539-7.566 3.968 0 2.086 1.738 3.696 5.36 3.696 3.398 0 5.183-1.364 6.573-3.446.075.992.223 2.032.57 3.074Zm-9.227-2.257c-2.031 0-3.098-.696-3.098-1.883 0-1.516 1.934-2.11 5.606-2.11h2.105v.422c0 .668-.023 1.414 0 2.184a8.276 8.276 0 0 1-4.613 1.387ZM143.528 220.71c1.484 0 2.949.01 4.617.01 2.086 0 4.949-.194 4.949-2.374 0-1.535-1.27-2.184-2.95-2.23v-.098c1.294-.063 2.352-.758 2.352-2.074 0-1.594-1.379-2.22-3.863-2.22h-5.105c.035 2.829.035 6.157 0 8.985Zm.73-4.852c0-1.23 0-2.352.012-3.57h4.363c1.988 0 3.094.425 3.094 1.742 0 1.257-.996 1.828-3.082 1.84-1.414 0-2.996 0-4.387-.012Zm.012.523c1.379-.012 2.96-.012 4.375-.012 2.902 0 3.656.844 3.656 1.903 0 1.035-.816 1.875-4.047 1.875-1.387 0-2.719-.012-3.984-.012ZM173.439 220.71c-1.559-2.938-3.106-5.962-4.629-8.9-.39.04-.879.028-1.258 0-1.5 2.938-3.035 5.962-4.57 8.9h.816c.391-.794.782-1.571 1.172-2.34 1.899-.012 4.57-.012 6.473 0 .363.742.582 1.206 1.156 2.34Zm-8.203-2.864a327.232 327.232 0 0 1 2.914-5.719c1.742 3.23 2.535 4.754 3.023 5.719-1.78.012-4.156.012-5.937 0ZM187.608 220.71h.766c-.024-2.657-.035-5.548-.024-8.337 1.73.012 3.352.035 4.961.074a5.77 5.77 0 0 1 0-.636c-3.62.027-6.996.027-10.629 0 .024.219.024.414 0 .636 1.598-.039 3.22-.062 4.938-.074.012 2.79.012 5.68-.012 8.336ZM203.53 220.71h.766a375.398 375.398 0 0 1 0-8.9 3.579 3.579 0 0 1-.766 0 563.07 563.07 0 0 1 0 8.9ZM218.147 216.26v-.047c3.082-.207 5.864-2.05 7.082-4.351a6.093 6.093 0 0 1-.926 0c-.988 1.828-3.207 4.203-8.093 4.105-.012-1.79 0-1.645 0-4.156a3.26 3.26 0 0 1-.73 0c.034 2.816.034 6.082 0 8.898h.765a600.661 600.661 0 0 0-.035-4.203c5.363-.184 7.582 2.84 7.922 4.203h.879c-.684-2.375-3.657-4.254-6.864-4.449Zm0 0"/></svg>