<svg xmlns="http://www.w3.org/2000/svg" xmlns:xlink="http://www.w3.org/1999/xlink" width="500" zoomAndPan="magnify" viewBox="0 0 375 374.999991" height="500" preserveAspectRatio="xMidYMid meet" version="1.0"><defs><g/><clipPath id="71366e0876"><path d="M 27 112.257812 L 130.410156 112.257812 L 130.410156 242 L 27 242 Z M 27 112.257812 " clip-rule="nonzero"/></clipPath><clipPath id="262117830e"><path d="M 28 112.257812 L 129 112.257812 L 129 262.257812 L 28 262.257812 Z M 28 112.257812 " clip-rule="nonzero"/></clipPath></defs><rect x="-37.5" width="450" fill="#ffffff" y="-37.499999" height="449.999989" fill-opacity="1"/><rect x="-37.5" width="450" fill="#ffffff" y="-37.499999" height="449.999989" fill-opacity="1"/><path fill="#ffbd59" d="M 132.667969 176.863281 C 144.0625 170.96875 157.363281 169.613281 170 169.300781 C 183.605469 168.953125 197.175781 169.84375 210.703125 171.085938 C 224.390625 172.363281 238.035156 173.953125 251.757812 174.921875 C 258.582031 175.390625 265.445312 175.660156 272.304688 175.699219 C 278.742188 175.738281 285.253906 175.777344 291.6875 175 C 298.164062 174.226562 304.636719 172.402344 309.601562 167.945312 C 313.941406 164.03125 317.082031 158.058594 315.878906 152.128906 C 315.375 149.648438 311.5 150.230469 311.5 152.710938 C 311.539062 157.980469 309.484375 162.441406 305.414062 165.773438 C 300.839844 169.535156 294.714844 170.851562 289.015625 171.550781 C 276.066406 173.0625 262.886719 172.558594 249.898438 171.667969 C 223.535156 169.804688 197.253906 165.503906 170.773438 166.433594 C 157.285156 166.859375 143.636719 168.410156 131.890625 175.542969 C 131.039062 176.046875 131.773438 177.328125 132.667969 176.863281 Z M 132.667969 176.863281 " fill-opacity="1" fill-rule="nonzero"/><path fill="#ffbd59" d="M 137.785156 168.253906 C 149.335938 164.03125 161.277344 163.023438 173.488281 162.945312 C 174.148438 162.945312 174.378906 161.820312 173.644531 161.742188 C 161.433594 159.921875 148.714844 162.828125 137.511719 167.75 C 137.28125 167.867188 137.472656 168.371094 137.785156 168.253906 Z M 137.785156 168.253906 " fill-opacity="1" fill-rule="nonzero"/><path fill="#ffbd59" d="M 305.0625 175.039062 C 309.523438 174.417969 313.632812 172.289062 316.734375 169.070312 C 318.324219 167.441406 319.679688 165.582031 320.609375 163.527344 C 321.386719 161.898438 322.820312 158.992188 321.65625 157.324219 C 321.113281 156.546875 320.183594 156.433594 319.484375 157.050781 C 318.167969 158.175781 318.359375 160.734375 317.820312 162.363281 C 317.199219 164.222656 316.304688 165.96875 315.183594 167.558594 C 312.664062 171.007812 309.058594 173.527344 304.949219 174.652344 C 304.675781 174.691406 304.792969 175.078125 305.0625 175.039062 Z M 305.0625 175.039062 " fill-opacity="1" fill-rule="nonzero"/><g clip-path="url(#71366e0876)"><path fill="#000000" d="M 122.621094 210.597656 C 118.664062 213.972656 113.207031 215.8125 110.046875 219.773438 C 109.78125 220.105469 109.535156 220.449219 109.308594 220.8125 C 109.199219 220.972656 109.105469 221.140625 109.007812 221.308594 C 108.972656 221.371094 108.941406 221.433594 108.90625 221.492188 C 107.773438 223.59375 107.359375 225.984375 106.824219 228.335938 C 106.691406 228.914062 106.546875 229.496094 106.394531 230.066406 C 106.136719 230.972656 105.828125 231.855469 105.417969 232.695312 C 105.398438 232.738281 105.378906 232.777344 105.359375 232.816406 C 104.054688 235.4375 101.832031 237.457031 99.238281 238.851562 C 97.863281 239.597656 96.386719 240.164062 94.882812 240.550781 C 94.515625 240.652344 94.144531 240.734375 93.777344 240.808594 C 92.589844 241.050781 91.410156 241.210938 90.230469 241.316406 C 86.789062 241.617188 83.367188 241.433594 79.808594 241.371094 C 79.449219 241.363281 79.085938 241.363281 78.71875 241.359375 C 78.355469 241.363281 77.988281 241.363281 77.628906 241.371094 C 76.386719 241.390625 75.164062 241.429688 73.945312 241.453125 C 72.050781 241.496094 70.179688 241.507812 68.304688 241.394531 C 66.761719 241.304688 65.21875 241.125 63.660156 240.808594 C 62.199219 240.511719 60.742188 240.050781 59.363281 239.425781 C 56.867188 238.300781 54.621094 236.636719 53.070312 234.453125 C 52.671875 233.898438 52.320312 233.3125 52.019531 232.691406 C 51.652344 231.933594 51.367188 231.136719 51.128906 230.328125 C 50.691406 228.851562 50.40625 227.3125 50.046875 225.808594 C 49.675781 224.238281 49.21875 222.703125 48.429688 221.300781 C 48.332031 221.132812 48.238281 220.96875 48.132812 220.804688 C 47.90625 220.441406 47.660156 220.097656 47.390625 219.765625 C 44.230469 215.804688 38.777344 213.96875 34.816406 210.59375 C 29.273438 205.859375 26.9375 198.136719 27.34375 190.855469 C 27.75 183.574219 30.566406 176.644531 33.890625 170.160156 C 44.847656 148.75 61.382812 130.820312 77.8125 113.238281 L 78.722656 112.269531 L 79.632812 113.238281 C 96.0625 130.820312 112.597656 148.75 123.554688 170.160156 C 126.878906 176.648438 129.699219 183.574219 130.101562 190.855469 C 130.507812 198.132812 128.175781 205.855469 122.628906 210.59375 Z M 122.621094 210.597656 " fill-opacity="1" fill-rule="nonzero"/></g><path fill="#000000" d="M 109.308594 220.8125 C 109.199219 220.972656 109.105469 221.140625 109.007812 221.308594 C 108.972656 221.371094 108.941406 221.433594 108.90625 221.492188 C 107.773438 223.59375 107.359375 225.984375 106.824219 228.335938 C 106.691406 228.914062 106.546875 229.496094 106.394531 230.066406 C 106.136719 230.972656 105.828125 231.855469 105.417969 232.695312 C 105.398438 232.738281 105.378906 232.777344 105.359375 232.816406 C 104.054688 235.4375 101.832031 237.457031 99.238281 238.851562 C 97.863281 239.597656 96.386719 240.164062 94.882812 240.550781 C 94.515625 240.652344 94.144531 240.734375 93.777344 240.808594 C 92.589844 241.050781 91.410156 241.210938 90.230469 241.316406 C 86.789062 241.617188 83.367188 241.433594 79.808594 241.371094 C 79.449219 241.363281 79.085938 241.363281 78.71875 241.359375 C 78.355469 241.363281 77.988281 241.363281 77.628906 241.371094 C 76.386719 241.390625 75.164062 241.429688 73.945312 241.453125 C 72.050781 241.496094 70.179688 241.507812 68.304688 241.394531 C 66.761719 241.304688 65.21875 241.125 63.660156 240.808594 C 62.199219 240.511719 60.742188 240.050781 59.363281 239.425781 C 56.867188 238.300781 54.621094 236.636719 53.070312 234.453125 C 52.671875 233.898438 52.320312 233.3125 52.019531 232.691406 C 51.652344 231.933594 51.367188 231.136719 51.128906 230.328125 C 50.691406 228.851562 50.40625 227.3125 50.046875 225.808594 C 49.675781 224.238281 49.21875 222.703125 48.429688 221.300781 C 48.332031 221.132812 48.238281 220.96875 48.132812 220.804688 L 109.308594 220.804688 Z M 109.308594 220.8125 " fill-opacity="1" fill-rule="nonzero"/><path fill="#c48355" d="M 57.210938 195.707031 L 78.714844 183.824219 L 100.699219 195.882812 L 101.6875 220.183594 L 56.582031 220.542969 Z M 57.210938 195.707031 " fill-opacity="1" fill-rule="nonzero"/><path fill="#ffffff" d="M 86.71875 228.96875 C 86.757812 228.917969 86.816406 228.824219 86.71875 228.96875 Z M 86.71875 228.96875 " fill-opacity="1" fill-rule="nonzero"/><g clip-path="url(#262117830e)"><path fill="#ffffff" d="M 127.414062 189.628906 C 127.222656 189.445312 127.007812 189.285156 126.785156 189.148438 C 126.6875 188.988281 126.53125 188.859375 126.285156 188.804688 C 124.316406 188.359375 122.457031 187.515625 120.859375 186.28125 C 119.328125 185.101562 117.820312 183.503906 117.382812 181.566406 C 117.007812 179.90625 117.871094 178.011719 119.578125 177.515625 C 121.160156 177.058594 122.945312 178.003906 123.179688 179.699219 C 123.296875 180.574219 122.984375 181.492188 122.25 182 C 121.589844 182.457031 120.679688 182.609375 119.949219 182.257812 C 119.53125 182.054688 119.019531 182.144531 118.773438 182.566406 C 118.554688 182.9375 118.660156 183.539062 119.078125 183.742188 C 121.28125 184.796875 124.058594 183.664062 124.75 181.28125 C 125.460938 178.835938 123.855469 176.265625 121.371094 175.785156 C 118.851562 175.300781 116.433594 176.894531 115.753906 179.351562 C 115.027344 181.972656 116.558594 184.558594 118.351562 186.347656 C 119.433594 187.425781 120.671875 188.328125 122.019531 189.039062 C 121.710938 189.175781 121.414062 189.339844 121.140625 189.523438 C 120.105469 190.226562 119.28125 191.273438 119.074219 192.535156 C 118.855469 193.894531 119.285156 195.25 120.414062 196.074219 C 121.386719 196.792969 122.804688 196.953125 123.824219 196.234375 C 124.796875 195.542969 125.363281 194.253906 124.941406 193.089844 C 124.78125 192.660156 124.355469 192.359375 123.886719 192.492188 C 123.464844 192.609375 123.125 193.113281 123.285156 193.546875 C 123.480469 194.09375 123.195312 194.785156 122.554688 194.957031 C 121.875 195.132812 121.140625 194.632812 120.871094 194.019531 C 120.066406 192.167969 122.105469 190.632812 123.675781 190.300781 C 124.464844 190.132812 125.414062 190.199219 126.066406 190.722656 C 126.710938 191.242188 127.019531 192.132812 127.109375 192.929688 C 127.28125 194.550781 126.617188 196.1875 125.480469 197.328125 C 122.363281 200.460938 117.785156 197.777344 114.058594 197.914062 C 110.328125 198.054688 106.929688 200.6875 105.761719 204.222656 C 104.675781 207.523438 105.550781 211.480469 108.140625 213.777344 C 108.105469 213.785156 108.074219 213.796875 108.042969 213.808594 C 105.867188 214.488281 103.628906 215.585938 102.269531 217.421875 L 102.269531 196.894531 C 103.050781 197.0625 103.835938 197.199219 104.632812 197.296875 C 106.816406 197.550781 109.214844 197.585938 111.304688 196.820312 C 113.394531 196.054688 114.953125 194.46875 115.601562 192.328125 C 116.238281 190.234375 115.90625 187.828125 114.546875 186.089844 C 113.28125 184.46875 111.070312 183.601562 109.046875 184.148438 C 107.058594 184.6875 105.589844 186.652344 105.585938 188.703125 C 105.585938 190.785156 107.078125 192.664062 109.050781 193.246094 C 110.117188 193.558594 110.566406 191.898438 109.507812 191.585938 C 107.855469 191.101562 106.871094 189.246094 107.523438 187.621094 C 108.195312 185.945312 110.046875 185.308594 111.667969 185.980469 C 115.027344 187.367188 114.859375 192.476562 112.1875 194.445312 C 110.714844 195.53125 108.78125 195.734375 107.007812 195.730469 C 104.878906 195.71875 102.78125 195.34375 100.746094 194.75 C 96.5625 193.515625 92.757812 191.332031 89.03125 189.113281 C 86.945312 187.871094 84.816406 186.636719 82.859375 185.199219 C 86.878906 186.859375 91.214844 187.960938 95.574219 187.546875 C 99.6875 187.164062 103.695312 185.355469 106.398438 182.175781 C 107.855469 180.460938 108.902344 178.40625 109.230469 176.167969 C 109.261719 175.957031 109.234375 175.753906 109.160156 175.574219 C 110.910156 174.976562 112.492188 173.742188 113.5625 172.230469 C 115.523438 169.460938 115.933594 165.71875 114.988281 162.496094 C 114.015625 159.167969 111.554688 156.449219 108.550781 154.789062 C 101.660156 150.980469 93.007812 153.050781 87.007812 157.617188 C 83.847656 160.023438 81.519531 163.171875 80.078125 166.867188 C 79.980469 167.109375 79.890625 167.347656 79.804688 167.589844 L 79.804688 150.1875 C 82.757812 152.757812 86.546875 154.546875 90.507812 154.375 C 94.53125 154.203125 98.703125 151.976562 100.339844 148.160156 C 101.8125 144.730469 101.003906 140.21875 98.011719 137.851562 C 96.558594 136.699219 94.675781 136.101562 92.832031 136.285156 C 93.023438 135.75 93.132812 135.1875 93.140625 134.625 C 93.160156 133.261719 92.558594 131.953125 91.589844 131 C 89.375 128.804688 86.050781 128.808594 83.359375 130.070312 C 82.035156 130.691406 80.835938 131.632812 79.886719 132.777344 C 79.851562 131.410156 79.902344 130.046875 80.054688 128.6875 C 80.207031 127.34375 80.382812 125.875 80.933594 124.625 C 81.335938 123.71875 82.097656 122.757812 83.160156 122.640625 C 84.011719 122.539062 84.914062 123.109375 85.207031 123.917969 C 85.570312 124.9375 84.921875 125.996094 83.976562 126.394531 C 83.550781 126.578125 83.457031 127.210938 83.671875 127.574219 C 83.929688 128.015625 84.417969 128.058594 84.847656 127.878906 C 86.167969 127.320312 87.054688 125.863281 87.019531 124.441406 C 86.988281 122.914062 85.9375 121.640625 84.535156 121.121094 C 83.074219 120.582031 81.480469 121.171875 80.449219 122.261719 C 80.195312 122.53125 79.984375 122.824219 79.796875 123.128906 L 79.796875 120.34375 C 79.796875 117.71875 79.730469 115.28125 79.617188 113.25 L 78.707031 112.28125 L 77.796875 113.25 C 77.679688 115.28125 77.617188 117.71875 77.617188 120.34375 L 77.617188 122.5 C 76.664062 121.359375 75.253906 120.65625 73.742188 120.953125 C 72.355469 121.226562 71.105469 122.414062 70.871094 123.820312 C 70.597656 125.429688 71.453125 127.191406 72.984375 127.839844 C 73.410156 128.019531 73.90625 127.964844 74.160156 127.53125 C 74.371094 127.171875 74.28125 126.539062 73.851562 126.355469 C 73.019531 126.003906 72.414062 125.160156 72.535156 124.222656 C 72.644531 123.382812 73.4375 122.699219 74.261719 122.597656 C 75.292969 122.472656 76.179688 123.28125 76.65625 124.113281 C 77.222656 125.097656 77.449219 126.277344 77.617188 127.414062 L 77.617188 132.371094 C 76.972656 131.667969 76.234375 131.046875 75.429688 130.550781 C 72.9375 129 69.546875 128.511719 67.039062 130.304688 C 65.949219 131.082031 65.050781 132.21875 64.792969 133.5625 C 64.621094 134.453125 64.691406 135.398438 65.003906 136.25 C 63.644531 136.125 62.230469 136.410156 61.019531 137.023438 C 57.578125 138.777344 56.15625 143.136719 57.023438 146.75 C 57.992188 150.753906 61.808594 153.511719 65.734375 154.164062 C 70.058594 154.886719 74.296875 153.222656 77.613281 150.5 L 77.613281 166.492188 C 76.578125 163.902344 75.089844 161.503906 73.007812 159.449219 C 70.246094 156.726562 66.71875 154.71875 63.007812 153.617188 C 59.324219 152.523438 55.257812 152.378906 51.605469 153.703125 C 48.371094 154.875 45.453125 157.085938 43.796875 160.148438 C 42.1875 163.117188 41.875 166.859375 43.125 170.015625 C 44.109375 172.503906 46.128906 174.695312 48.664062 175.546875 C 48.597656 175.722656 48.574219 175.917969 48.601562 176.125 C 49.191406 180.140625 52.035156 183.492188 55.503906 185.445312 C 59.550781 187.730469 64.308594 187.988281 68.796875 187.085938 C 70.640625 186.71875 72.421875 186.15625 74.167969 185.476562 C 72.320312 186.800781 70.332031 187.949219 68.382812 189.109375 C 64.65625 191.328125 60.851562 193.511719 56.667969 194.746094 C 54.632812 195.34375 52.53125 195.714844 50.40625 195.726562 C 48.628906 195.730469 46.699219 195.527344 45.222656 194.441406 C 42.554688 192.472656 42.386719 187.363281 45.742188 185.976562 C 47.367188 185.304688 49.222656 185.945312 49.890625 187.617188 C 50.542969 189.242188 49.558594 191.097656 47.90625 191.582031 C 46.847656 191.890625 47.296875 193.554688 48.363281 193.242188 C 50.335938 192.660156 51.828125 190.78125 51.828125 188.699219 C 51.824219 186.648438 50.359375 184.683594 48.367188 184.144531 C 46.34375 183.601562 44.132812 184.46875 42.863281 186.085938 C 41.507812 187.824219 41.175781 190.230469 41.808594 192.324219 C 42.460938 194.464844 44.019531 196.050781 46.109375 196.816406 C 48.199219 197.582031 50.597656 197.550781 52.78125 197.292969 C 53.777344 197.171875 54.765625 196.988281 55.738281 196.753906 C 55.757812 196.898438 55.8125 197.035156 55.90625 197.152344 C 55.894531 197.207031 55.890625 197.261719 55.890625 197.320312 L 55.890625 217.867188 C 54.757812 216.015625 52.761719 214.835938 50.726562 214.085938 C 50.390625 213.960938 50.046875 213.847656 49.699219 213.742188 C 51.980469 211.722656 52.847656 208.464844 52.363281 205.429688 C 51.785156 201.800781 48.71875 198.703125 45.109375 198.03125 C 42.976562 197.628906 40.871094 198.144531 38.773438 198.539062 C 36.878906 198.894531 34.859375 199.085938 33.175781 197.972656 C 31.871094 197.109375 30.941406 195.617188 30.738281 194.066406 C 30.523438 192.453125 31.132812 190.429688 32.984375 190.207031 C 34.800781 189.988281 37.296875 191.324219 37.105469 193.414062 C 37.03125 194.210938 36.382812 194.984375 35.53125 194.949219 C 34.769531 194.921875 34.320312 194.152344 34.554688 193.511719 C 34.710938 193.074219 34.375 192.570312 33.953125 192.453125 C 33.476562 192.324219 33.058594 192.617188 32.894531 193.054688 C 32.539062 194.042969 32.902344 195.214844 33.667969 195.921875 C 34.496094 196.679688 35.65625 196.855469 36.691406 196.4375 C 39.132812 195.449219 39.347656 192.390625 37.835938 190.511719 C 37.320312 189.871094 36.617188 189.351562 35.832031 188.996094 C 36.882812 188.433594 37.875 187.761719 38.777344 186.976562 C 40.65625 185.335938 42.476562 182.933594 42.253906 180.300781 C 42.042969 177.808594 40.023438 175.640625 37.445312 175.640625 C 34.929688 175.644531 32.757812 177.699219 32.929688 180.277344 C 33.023438 181.65625 33.742188 182.914062 34.96875 183.589844 C 36.152344 184.238281 37.542969 184.28125 38.757812 183.699219 C 39.175781 183.496094 39.285156 182.898438 39.066406 182.523438 C 38.816406 182.097656 38.308594 182.015625 37.890625 182.214844 C 36.53125 182.871094 34.859375 181.863281 34.65625 180.402344 C 34.414062 178.617188 35.917969 177.289062 37.628906 177.371094 C 39.367188 177.449219 40.582031 179.144531 40.542969 180.792969 C 40.5 182.792969 38.984375 184.519531 37.558594 185.765625 C 35.847656 187.257812 33.761719 188.269531 31.554688 188.765625 C 31.296875 188.824219 31.125 188.964844 31.03125 189.140625 C 29.472656 190.171875 28.820312 192.207031 29.019531 194.066406 C 29.242188 196.101562 30.300781 197.953125 31.929688 199.1875 C 33.753906 200.578125 35.996094 200.695312 38.195312 200.371094 C 40.390625 200.050781 42.664062 199.25 44.894531 199.738281 C 46.683594 200.132812 48.332031 201.210938 49.40625 202.703125 C 51.722656 205.945312 51.152344 211.074219 47.597656 213.152344 C 45.90625 212.683594 44.230469 212.148438 42.867188 211.042969 C 40.949219 209.488281 39.851562 206.757812 41.289062 204.503906 C 41.914062 203.523438 43.003906 202.976562 44.160156 203.019531 C 45.210938 203.054688 46.144531 203.675781 46.460938 204.695312 C 46.769531 205.691406 46.488281 206.894531 45.515625 207.296875 C 44.660156 207.648438 43.550781 207.40625 43.097656 206.570312 C 42.570312 205.597656 41.082031 206.464844 41.613281 207.4375 C 42.253906 208.621094 43.644531 209.265625 44.96875 209.15625 C 46.4375 209.035156 47.648438 208.15625 48.121094 206.734375 C 48.582031 205.339844 48.179688 203.726562 47.21875 202.644531 C 46.167969 201.457031 44.453125 201.109375 42.949219 201.417969 C 39.671875 202.082031 38.210938 205.886719 39.242188 208.84375 C 39.792969 210.414062 40.859375 211.710938 42.195312 212.683594 C 43.550781 213.664062 45.171875 214.222656 46.765625 214.691406 C 49.660156 215.542969 53.777344 216.363281 54.851562 219.667969 C 54.863281 219.710938 54.886719 219.746094 54.902344 219.78125 L 47.375 219.78125 C 47.757812 220.261719 48.109375 220.769531 48.414062 221.316406 C 49.203125 222.714844 49.65625 224.25 50.03125 225.824219 C 49.902344 224.386719 49.96875 222.929688 50.246094 221.503906 L 57.769531 221.503906 C 57.292969 224.753906 57.714844 228.015625 59.015625 231.027344 C 58.40625 231.214844 57.796875 231.40625 57.1875 231.585938 C 55.601562 232.054688 53.996094 232.472656 52.386719 232.859375 C 51.882812 232.058594 51.457031 231.214844 51.113281 230.34375 C 51.351562 231.15625 51.636719 231.949219 52.003906 232.710938 C 52.300781 233.332031 52.65625 233.917969 53.050781 234.46875 C 53.800781 234.289062 54.546875 234.101562 55.292969 233.898438 C 56.203125 236.042969 57.605469 237.941406 59.351562 239.4375 C 60.726562 240.0625 62.183594 240.523438 63.648438 240.824219 C 65.207031 241.136719 66.746094 241.320312 68.292969 241.40625 C 68.855469 240.984375 69.402344 240.539062 69.929688 240.078125 C 69.996094 240.242188 70.109375 240.382812 70.28125 240.460938 C 71.460938 240.96875 72.683594 241.308594 73.933594 241.464844 C 75.148438 241.621094 76.382812 241.605469 77.617188 241.414062 L 77.617188 249.472656 C 77.617188 256.535156 78.101562 262.253906 78.707031 262.253906 C 79.308594 262.253906 79.796875 256.53125 79.796875 249.472656 L 79.796875 239.429688 C 81.820312 239.679688 83.890625 239.300781 85.625 238.199219 C 87.058594 237.296875 88.164062 235.996094 88.882812 234.484375 C 90.863281 235.710938 92.964844 236.746094 95.148438 237.578125 C 94 239.355469 92.230469 240.707031 90.21875 241.328125 C 91.394531 241.226562 92.578125 241.0625 93.765625 240.824219 C 94.132812 240.746094 94.5 240.660156 94.867188 240.5625 C 95.625 239.871094 96.285156 239.0625 96.804688 238.167969 C 97.28125 238.324219 97.753906 238.46875 98.238281 238.605469 C 98.566406 238.699219 98.894531 238.785156 99.222656 238.867188 C 101.824219 237.46875 104.039062 235.453125 105.34375 232.828125 C 105.597656 231.925781 105.78125 230.996094 105.933594 230.089844 C 106.082031 230.085938 106.230469 230.082031 106.378906 230.082031 C 106.539062 229.507812 106.679688 228.929688 106.8125 228.347656 C 105.265625 228.398438 103.722656 228.382812 102.175781 228.296875 C 103.09375 226.15625 103.382812 223.792969 102.976562 221.507812 L 108.894531 221.507812 C 108.925781 221.445312 108.960938 221.382812 108.996094 221.320312 C 109.300781 220.777344 109.652344 220.265625 110.035156 219.789062 L 102.945312 219.789062 C 102.957031 219.765625 102.96875 219.742188 102.980469 219.71875 C 103.90625 216.867188 107.234375 215.824219 109.8125 215.09375 C 113.003906 214.1875 116.40625 213.121094 118.097656 210 C 118.871094 208.574219 119.136719 206.917969 118.734375 205.339844 C 118.363281 203.863281 117.378906 202.480469 115.96875 201.839844 C 114.546875 201.1875 112.800781 201.152344 111.445312 202 C 110.210938 202.777344 109.472656 204.226562 109.523438 205.683594 C 109.585938 207.316406 110.640625 208.789062 112.285156 209.125 C 113.785156 209.425781 115.464844 208.886719 116.222656 207.488281 C 116.75 206.515625 115.261719 205.644531 114.738281 206.625 C 114.339844 207.347656 113.417969 207.65625 112.644531 207.445312 C 112.226562 207.332031 111.894531 207.175781 111.621094 206.8125 C 111.324219 206.414062 111.226562 205.933594 111.242188 205.460938 C 111.273438 204.464844 111.898438 203.53125 112.878906 203.210938 C 113.941406 202.871094 115.1875 203.136719 116.003906 203.90625 C 117.90625 205.707031 117.328125 208.664062 115.695312 210.410156 C 114.242188 211.957031 112.242188 212.625 110.234375 213.191406 C 107.148438 211.378906 106.179688 207.054688 107.742188 203.894531 C 108.554688 202.25 109.957031 200.910156 111.648438 200.191406 C 113.671875 199.335938 115.773438 199.695312 117.851562 200.105469 C 120.171875 200.5625 122.582031 200.964844 124.808594 199.914062 C 126.566406 199.085938 127.894531 197.433594 128.503906 195.605469 C 129.148438 193.667969 128.945312 191.128906 127.40625 189.648438 Z M 79.804688 137.914062 C 79.964844 137.703125 80.015625 137.425781 79.972656 137.140625 C 79.9375 136.890625 79.882812 136.640625 79.824219 136.398438 C 80.335938 134.832031 81.34375 133.464844 82.679688 132.472656 C 84.421875 131.183594 86.847656 130.386719 88.945312 131.261719 C 90.664062 131.976562 91.851562 133.726562 91.257812 135.585938 C 91.023438 136.335938 90.449219 137.050781 89.714844 137.277344 C 88.996094 137.5 88.199219 137.355469 87.566406 136.882812 C 86.941406 136.417969 86.644531 135.636719 87.03125 134.886719 C 87.441406 134.078125 88.289062 133.636719 89.078125 133.933594 C 89.511719 134.097656 90.019531 133.753906 90.132812 133.332031 C 90.265625 132.851562 89.96875 132.445312 89.535156 132.277344 C 88.308594 131.816406 86.898438 132.335938 86.0625 133.296875 C 85.171875 134.320312 84.863281 135.6875 85.441406 136.9375 C 85.929688 137.996094 87.015625 138.757812 88.152344 139 C 88.203125 139.007812 88.253906 139.015625 88.304688 139.023438 C 87.890625 139.664062 87.601562 140.386719 87.488281 141.15625 C 87.136719 143.550781 88.613281 146.097656 91.015625 146.730469 C 93.304688 147.332031 95.960938 145.816406 96.414062 143.445312 C 96.503906 142.992188 96.285156 142.519531 95.816406 142.390625 C 95.394531 142.273438 94.847656 142.53125 94.757812 142.988281 C 94.488281 144.390625 93.003906 145.402344 91.597656 145.097656 C 90.0625 144.765625 89.027344 143.164062 89.15625 141.632812 C 89.296875 139.953125 90.652344 138.558594 92.238281 138.132812 C 93.886719 137.6875 95.769531 138.15625 97.050781 139.277344 C 99.296875 141.230469 99.949219 144.695312 98.816406 147.394531 C 97.535156 150.457031 94.214844 152.347656 91.011719 152.628906 C 86.742188 153.003906 82.710938 150.804688 79.808594 147.824219 L 79.808594 137.914062 Z M 76.003906 234.015625 C 75.949219 234.003906 75.890625 233.996094 75.832031 233.980469 C 75.699219 233.957031 75.5625 233.921875 75.429688 233.886719 C 75.410156 233.882812 75.390625 233.875 75.371094 233.871094 C 76.222656 232.589844 76.976562 231.242188 77.625 229.84375 L 77.625 234.027344 C 77.359375 234.058594 77.097656 234.074219 76.832031 234.074219 C 76.695312 234.074219 76.554688 234.070312 76.417969 234.058594 C 76.359375 234.054688 76.300781 234.054688 76.242188 234.046875 C 76.226562 234.042969 76.113281 234.039062 76.082031 234.035156 L 76.125 234.035156 C 76.273438 234.035156 76.039062 234.023438 76.003906 234.015625 Z M 77.296875 221.488281 C 75.570312 224.117188 72.574219 225.621094 69.757812 226.898438 C 69.007812 225.328125 68.722656 223.441406 68.984375 221.757812 C 68.992188 221.664062 68.996094 221.578125 68.988281 221.488281 Z M 71.964844 219.769531 L 71.964844 205.417969 C 73.851562 203.480469 75.738281 201.539062 77.621094 199.601562 L 77.621094 219.769531 Z M 74.984375 226.058594 C 75.949219 225.421875 76.84375 224.675781 77.621094 223.828125 L 77.621094 224.882812 C 77.089844 226.765625 76.355469 228.59375 75.453125 230.332031 C 75.355469 230.285156 75.261719 230.238281 75.164062 230.183594 C 74.964844 230.078125 74.769531 229.960938 74.582031 229.835938 C 74.492188 229.777344 74.402344 229.714844 74.316406 229.652344 C 74.28125 229.628906 74.246094 229.605469 74.210938 229.578125 C 74.203125 229.566406 74.191406 229.558594 74.1875 229.554688 C 74.011719 229.410156 73.84375 229.257812 73.679688 229.101562 C 73.523438 228.945312 73.378906 228.789062 73.238281 228.625 C 73.195312 228.578125 73.160156 228.53125 73.125 228.488281 C 73.113281 228.472656 73.101562 228.464844 73.09375 228.453125 C 73.03125 228.378906 72.976562 228.289062 72.921875 228.210938 C 72.761719 227.980469 72.625 227.742188 72.5 227.492188 C 73.351562 227.0625 74.1875 226.59375 74.980469 226.0625 Z M 68.207031 152.617188 C 64.914062 152.738281 61.390625 151.265625 59.59375 148.40625 C 58.019531 145.902344 58.132812 142.441406 59.96875 140.09375 C 60.976562 138.800781 62.519531 137.976562 64.167969 137.933594 C 65.949219 137.878906 67.644531 138.785156 68.386719 140.445312 C 69.125 142.078125 68.457031 144.128906 66.785156 144.878906 C 65.269531 145.566406 63.398438 144.558594 63.082031 142.945312 C 63 142.488281 62.449219 142.230469 62.027344 142.347656 C 61.550781 142.476562 61.339844 142.941406 61.429688 143.402344 C 61.824219 145.453125 63.949219 146.96875 66.015625 146.816406 C 68.148438 146.648438 69.949219 144.898438 70.328125 142.808594 C 70.574219 141.457031 70.246094 140.109375 69.527344 138.988281 C 70.449219 138.816406 71.332031 138.347656 71.917969 137.632812 C 72.847656 136.496094 72.964844 134.921875 72.117188 133.695312 C 71.292969 132.492188 69.746094 131.699219 68.300781 132.238281 C 67.871094 132.402344 67.570312 132.816406 67.703125 133.292969 C 67.820312 133.710938 68.324219 134.058594 68.757812 133.890625 C 69.449219 133.636719 70.160156 133.917969 70.632812 134.5625 C 71.097656 135.195312 71.085938 135.949219 70.632812 136.496094 C 70.136719 137.097656 69.367188 137.375 68.617188 137.332031 C 67.878906 137.292969 67.199219 136.777344 66.804688 136.074219 C 65.882812 134.421875 66.6875 132.515625 68.21875 131.566406 C 70.1875 130.359375 72.632812 130.847656 74.507812 131.992188 C 75.84375 132.8125 76.933594 133.988281 77.613281 135.375 L 77.613281 148.195312 C 75.074219 150.644531 71.78125 152.488281 68.199219 152.613281 Z M 44.578125 168.964844 C 43.6875 166.230469 44.019531 163.15625 45.472656 160.671875 C 46.957031 158.140625 49.445312 156.277344 52.191406 155.3125 C 58.605469 153.039062 66.078125 155.546875 71.011719 159.921875 C 71.101562 159.996094 71.175781 160.082031 71.261719 160.160156 C 68.566406 158.457031 65.195312 157.695312 62.066406 158.441406 C 59.175781 159.140625 56.4375 161.394531 55.890625 164.363281 C 55.707031 164.152344 55.511719 163.949219 55.296875 163.769531 C 53.914062 162.589844 52.039062 161.992188 50.238281 162.425781 C 48.566406 162.828125 47.15625 164.121094 46.59375 165.742188 C 46.019531 167.394531 46.585938 169.324219 47.871094 170.484375 C 48.476562 171.03125 49.21875 171.425781 50.035156 171.542969 C 50.492188 171.605469 50.957031 171.429688 51.089844 170.941406 C 51.199219 170.542969 50.953125 169.949219 50.488281 169.886719 C 49.25 169.714844 48.261719 168.703125 48.101562 167.449219 C 47.929688 166.117188 48.847656 164.902344 49.992188 164.332031 C 51.246094 163.707031 52.726562 164.027344 53.839844 164.800781 C 55.070312 165.652344 55.714844 167.144531 55.765625 168.609375 C 55.863281 171.503906 53.742188 174.363281 50.671875 174.199219 C 47.753906 174.039062 45.441406 171.617188 44.578125 168.964844 Z M 57.460938 169.484375 C 57.730469 169.738281 58.023438 169.96875 58.351562 170.160156 C 58.410156 170.195312 58.46875 170.222656 58.527344 170.253906 C 58 170.496094 57.519531 170.824219 57.085938 171.226562 C 57.273438 170.664062 57.402344 170.082031 57.457031 169.488281 Z M 62.574219 185.808594 C 58.828125 185.523438 55.210938 183.863281 52.738281 181.003906 C 51.476562 179.546875 50.632812 177.789062 50.3125 175.894531 C 50.554688 175.914062 50.796875 175.929688 51.050781 175.925781 C 52.839844 175.902344 54.386719 175.101562 55.519531 173.882812 C 54.929688 176.136719 55.734375 178.660156 57.355469 180.441406 C 59.695312 183.007812 63.363281 183.890625 66.675781 184.289062 C 68.488281 184.507812 70.320312 184.542969 72.136719 184.402344 C 69.058594 185.449219 65.828125 186.0625 62.574219 185.808594 Z M 69.429688 182.761719 C 66.589844 182.710938 63.5 182.308594 60.9375 180.988281 C 58.71875 179.839844 56.863281 177.710938 57.027344 175.070312 C 57.1875 172.550781 59.753906 170.859375 62.140625 171.566406 C 63.34375 171.925781 64.519531 172.957031 64.484375 174.300781 C 64.460938 175.449219 63.304688 176.425781 62.238281 175.6875 C 61.855469 175.421875 61.285156 175.617188 61.0625 175.996094 C 60.816406 176.421875 60.992188 176.910156 61.371094 177.171875 C 62.757812 178.132812 64.695312 177.597656 65.609375 176.25 C 66.570312 174.835938 66.285156 172.960938 65.265625 171.675781 C 64.683594 170.933594 63.929688 170.414062 63.109375 170.09375 C 63.121094 170.085938 63.128906 170.082031 63.140625 170.074219 C 64.675781 168.960938 65.441406 166.910156 64.597656 165.136719 C 64.175781 164.246094 63.339844 163.546875 62.351562 163.414062 C 61.34375 163.285156 60.339844 163.726562 59.8125 164.597656 C 59.234375 165.546875 60.722656 166.410156 61.296875 165.464844 C 61.515625 165.113281 61.992188 165.019531 62.363281 165.171875 C 62.832031 165.363281 63.140625 165.894531 63.21875 166.378906 C 63.390625 167.402344 62.6875 168.488281 61.761719 168.902344 C 60.683594 169.382812 59.359375 168.960938 58.554688 168.164062 C 57.632812 167.273438 57.335938 165.863281 57.589844 164.632812 C 58.148438 161.953125 60.789062 160.28125 63.351562 159.9375 C 66.167969 159.566406 69.035156 160.546875 71.265625 162.238281 C 73.773438 164.136719 75.542969 166.847656 76.902344 169.652344 C 77.214844 170.78125 77.449219 171.929688 77.621094 173.089844 L 77.621094 181.621094 C 74.964844 182.421875 72.210938 182.816406 69.429688 182.761719 Z M 66.476562 192.21875 C 68.773438 190.917969 71.0625 189.570312 73.285156 188.148438 C 74.796875 187.175781 76.273438 186.125 77.621094 184.933594 L 77.621094 195.742188 L 59.085938 195.742188 C 61.644531 194.808594 64.097656 193.566406 66.476562 192.21875 Z M 57.617188 219.769531 L 57.617188 197.457031 L 77.3125 197.457031 C 75.078125 199.757812 72.84375 202.050781 70.609375 204.351562 C 70.542969 204.417969 70.5 204.484375 70.460938 204.550781 C 70.332031 204.6875 70.246094 204.878906 70.246094 205.117188 L 70.246094 219.769531 Z M 59.417969 221.488281 L 67.300781 221.488281 C 67.019531 223.585938 67.320312 225.671875 68.199219 227.589844 C 65.726562 228.664062 63.207031 229.625 60.652344 230.484375 C 59.441406 227.835938 59.011719 224.808594 59.4375 221.929688 C 59.457031 221.78125 59.453125 221.632812 59.417969 221.488281 Z M 66.328125 240.730469 C 66.226562 240.800781 66.121094 240.863281 66.023438 240.9375 C 66.003906 240.933594 65.984375 240.921875 65.964844 240.921875 C 62.023438 239.992188 58.566406 237.164062 56.957031 233.433594 C 59.167969 232.800781 61.367188 232.089844 63.527344 231.296875 C 63.648438 231.253906 63.765625 231.207031 63.882812 231.164062 C 64.558594 234.292969 67.3125 236.320312 70.0625 237.621094 C 68.910156 238.761719 67.664062 239.808594 66.328125 240.730469 Z M 67.429688 233.898438 C 66.445312 232.96875 65.757812 231.871094 65.5 230.542969 C 66.960938 229.972656 68.414062 229.375 69.84375 228.738281 C 70.21875 228.566406 70.589844 228.402344 70.960938 228.230469 C 71.742188 229.800781 73.054688 231.042969 74.621094 231.8125 C 73.660156 233.421875 72.539062 234.933594 71.292969 236.328125 C 71.246094 236.289062 71.195312 236.257812 71.136719 236.230469 C 69.808594 235.617188 68.488281 234.90625 67.429688 233.902344 Z M 71.15625 238.960938 C 71.15625 238.960938 71.140625 238.957031 71.136719 238.953125 C 72.292969 237.832031 73.363281 236.625 74.335938 235.339844 C 75.375 235.726562 76.527344 235.871094 77.625 235.742188 L 77.625 239.65625 C 75.472656 240.0625 73.171875 239.828125 71.15625 238.960938 Z M 101.234375 221.488281 C 101.6875 223.648438 101.433594 225.941406 100.464844 227.933594 C 100.429688 228 100.410156 228.070312 100.390625 228.144531 C 98.015625 227.925781 95.652344 227.550781 93.328125 227.007812 C 93.882812 225.226562 93.894531 223.273438 93.347656 221.488281 Z M 101.46875 183.996094 C 97.785156 186.078125 93.417969 186.277344 89.339844 185.4375 C 88.113281 185.183594 86.90625 184.84375 85.714844 184.441406 C 87.058594 184.546875 88.410156 184.558594 89.75 184.464844 C 93.171875 184.230469 96.859375 183.523438 99.589844 181.320312 C 101.714844 179.601562 103.027344 176.675781 102.363281 174 C 102.902344 174.574219 103.542969 175.058594 104.285156 175.398438 C 105.347656 175.882812 106.453125 176.035156 107.53125 175.925781 C 106.9375 179.433594 104.519531 182.269531 101.46875 183.996094 Z M 93.273438 156.007812 C 96.496094 154.714844 100.09375 154.089844 103.539062 154.773438 C 106.449219 155.347656 109.183594 156.792969 111.15625 159.027344 C 113.089844 161.226562 113.996094 164.121094 113.703125 167.03125 C 113.414062 169.855469 111.785156 172.597656 109.125 173.757812 C 107.890625 174.296875 106.414062 174.457031 105.160156 173.917969 C 103.878906 173.367188 102.886719 172.1875 102.425781 170.886719 C 101.925781 169.46875 101.925781 167.816406 102.628906 166.457031 C 103.285156 165.1875 104.539062 164.21875 105.984375 164.066406 C 107.300781 163.925781 108.628906 164.554688 109.320312 165.691406 C 109.996094 166.796875 109.859375 168.164062 108.964844 169.109375 C 108.523438 169.578125 107.988281 169.84375 107.351562 169.929688 C 106.890625 169.992188 106.644531 170.582031 106.753906 170.984375 C 106.890625 171.484375 107.351562 171.648438 107.8125 171.585938 C 109.507812 171.347656 110.886719 169.917969 111.328125 168.300781 C 111.785156 166.601562 111.128906 164.769531 109.808594 163.636719 C 108.4375 162.457031 106.609375 162.042969 104.867188 162.546875 C 103.714844 162.875 102.710938 163.542969 101.949219 164.429688 C 101.792969 163.597656 101.480469 162.789062 101.015625 162.074219 C 100.054688 160.589844 98.621094 159.53125 96.996094 158.875 C 93.71875 157.554688 89.816406 158.242188 86.847656 160.027344 C 86.757812 160.082031 86.675781 160.140625 86.582031 160.199219 C 88.527344 158.410156 90.832031 156.988281 93.273438 156.007812 Z M 100.757812 171.269531 C 100.328125 170.871094 99.832031 170.542969 99.308594 170.292969 C 99.707031 170.082031 100.074219 169.820312 100.398438 169.515625 C 100.449219 170.109375 100.574219 170.695312 100.757812 171.269531 Z M 80.9375 169.710938 C 83.335938 164.777344 87.4375 159.84375 93.410156 159.917969 C 96.03125 159.949219 98.882812 161.210938 99.96875 163.742188 C 100.476562 164.910156 100.488281 166.34375 99.859375 167.472656 C 99.273438 168.511719 98.128906 169.1875 96.929688 169.136719 C 95.757812 169.085938 94.691406 168.070312 94.613281 166.882812 C 94.574219 166.304688 94.789062 165.683594 95.269531 165.332031 C 95.664062 165.050781 96.28125 165.066406 96.550781 165.507812 C 97.125 166.449219 98.605469 165.585938 98.03125 164.640625 C 97.570312 163.875 96.742188 163.425781 95.84375 163.425781 C 94.921875 163.421875 94.101562 163.925781 93.566406 164.652344 C 92.507812 166.070312 92.792969 167.992188 93.855469 169.316406 C 94.113281 169.640625 94.417969 169.910156 94.746094 170.132812 C 94.300781 170.308594 93.878906 170.539062 93.484375 170.835938 C 92.023438 171.949219 91.191406 173.867188 91.910156 175.652344 C 92.613281 177.398438 94.832031 178.34375 96.476562 177.207031 C 96.859375 176.941406 97.035156 176.453125 96.785156 176.03125 C 96.5625 175.652344 95.992188 175.457031 95.609375 175.726562 C 94.703125 176.355469 93.640625 175.722656 93.410156 174.726562 C 93.152344 173.601562 93.90625 172.542969 94.832031 171.992188 C 97.015625 170.691406 99.96875 171.828125 100.667969 174.277344 C 101.367188 176.71875 99.804688 179.203125 97.8125 180.5 C 95.425781 182.054688 92.394531 182.578125 89.597656 182.753906 C 86.324219 182.953125 83.050781 182.546875 79.929688 181.570312 C 79.738281 177.644531 79.894531 173.53125 80.9375 169.710938 Z M 79.808594 184.929688 C 81.152344 186.125 82.632812 187.175781 84.144531 188.144531 C 86.367188 189.566406 88.660156 190.914062 90.953125 192.21875 C 93.332031 193.5625 95.785156 194.800781 98.34375 195.738281 L 79.808594 195.738281 Z M 79.808594 197.457031 L 100.558594 197.457031 L 100.558594 219.769531 L 88.378906 219.769531 L 88.378906 205.414062 C 88.425781 205.140625 88.363281 204.84375 88.144531 204.667969 C 85.367188 202.332031 82.585938 200 79.804688 197.664062 L 79.804688 197.457031 Z M 79.808594 199.898438 L 86.660156 205.652344 L 86.660156 219.769531 L 79.808594 219.769531 Z M 79.808594 221.488281 L 91.535156 221.488281 C 92.140625 223.160156 92.1875 224.902344 91.664062 226.59375 C 89.679688 226.0625 87.722656 225.417969 85.8125 224.65625 C 83.742188 223.828125 81.746094 222.84375 79.808594 221.746094 Z M 79.808594 223.710938 C 82.238281 225.023438 84.777344 226.140625 87.378906 227.058594 C 87.363281 227.125 87.347656 227.191406 87.347656 227.265625 C 87.34375 227.347656 87.339844 227.429688 87.332031 227.507812 C 87.332031 227.511719 87.328125 227.539062 87.328125 227.5625 C 87.300781 227.71875 87.261719 227.871094 87.214844 228.023438 C 87.191406 228.097656 87.167969 228.175781 87.136719 228.25 C 87.136719 228.257812 87.136719 228.261719 87.132812 228.273438 C 87.125 228.285156 87.117188 228.300781 87.117188 228.308594 C 87.050781 228.453125 86.972656 228.589844 86.886719 228.726562 C 86.847656 228.789062 86.808594 228.851562 86.761719 228.914062 C 86.757812 228.914062 86.757812 228.917969 86.753906 228.921875 C 86.753906 228.921875 86.753906 228.925781 86.75 228.925781 C 86.75 228.933594 86.746094 228.933594 86.738281 228.941406 C 86.734375 228.953125 86.722656 228.96875 86.714844 228.984375 C 86.617188 229.09375 86.515625 229.203125 86.40625 229.304688 C 86.347656 229.359375 86.292969 229.414062 86.230469 229.464844 C 86.230469 229.464844 86.226562 229.464844 86.226562 229.46875 C 86.210938 229.480469 86.191406 229.488281 86.175781 229.507812 C 86.042969 229.605469 85.898438 229.683594 85.75 229.761719 C 85.667969 229.804688 85.597656 229.867188 85.535156 229.9375 C 84.90625 229.40625 84.289062 228.855469 83.691406 228.277344 C 82.261719 226.882812 80.96875 225.367188 79.808594 223.75 Z M 79.808594 226.550781 C 80.757812 227.707031 81.78125 228.804688 82.867188 229.832031 C 82.824219 229.867188 82.785156 229.894531 82.742188 229.929688 C 82.667969 229.984375 82.585938 230.039062 82.503906 230.09375 C 82.171875 230.3125 81.824219 230.511719 81.460938 230.679688 C 81.394531 230.714844 81.320312 230.75 81.246094 230.78125 C 81.226562 230.785156 81.105469 230.839844 81.066406 230.851562 C 80.886719 230.921875 80.707031 230.984375 80.519531 231.039062 C 80.289062 231.109375 80.050781 231.164062 79.808594 231.214844 Z M 79.878906 237.710938 C 79.855469 237.707031 79.828125 237.707031 79.808594 237.703125 L 79.808594 232.953125 C 81.398438 232.710938 82.898438 232.011719 84.144531 230.992188 C 85.195312 231.902344 86.296875 232.746094 87.441406 233.527344 C 86.203125 236.4375 83.03125 238.234375 79.882812 237.710938 Z M 93.121094 234.378906 C 92.980469 234.457031 92.882812 234.5625 92.8125 234.675781 C 90.742188 233.664062 88.765625 232.453125 86.929688 231.0625 C 88.113281 230.3125 88.898438 229.003906 89.042969 227.613281 C 91.402344 228.355469 93.8125 228.933594 96.25 229.347656 C 96.246094 229.460938 96.238281 229.570312 96.226562 229.679688 C 96.226562 229.703125 96.226562 229.734375 96.222656 229.746094 C 96.214844 229.8125 96.207031 229.871094 96.195312 229.933594 C 96.148438 230.210938 96.082031 230.484375 96 230.753906 C 95.824219 231.328125 95.671875 231.664062 95.347656 232.199219 C 94.800781 233.109375 94.058594 233.84375 93.128906 234.378906 Z M 103.925781 230.074219 C 104.023438 230.078125 104.117188 230.074219 104.210938 230.078125 C 103.738281 232.828125 102.925781 235.824219 100.457031 237.367188 C 98.445312 236.914062 96.472656 236.28125 94.574219 235.484375 C 96.496094 234.128906 97.742188 231.945312 97.949219 229.605469 C 99.929688 229.871094 101.925781 230.03125 103.925781 230.074219 Z M 103.925781 230.074219 " fill-opacity="1" fill-rule="nonzero"/></g><g fill="#000000" fill-opacity="1"><g transform="translate(142.246344, 202.416496)"><g><path d="M 13.914062 0.421875 C 18.726562 0.421875 21.925781 -0.644531 24.730469 -2.679688 C 24.554688 -3.671875 24.308594 -5.058594 24.457031 -6.523438 C 21.355469 -3.597656 17.910156 -2.578125 14.386719 -2.578125 C 8.433594 -2.578125 5.457031 -5.308594 5.457031 -9.328125 C 5.457031 -13.59375 8.980469 -16 14.535156 -15.972656 C 17.015625 -15.949219 20.464844 -15.355469 24.457031 -12.949219 C 24.28125 -14.386719 24.28125 -15.453125 24.457031 -16.890625 C 20.488281 -18.527344 17.1875 -18.949219 14.3125 -18.949219 C 6.25 -18.949219 1.140625 -15.601562 1.140625 -9.328125 C 1.140625 -3.324219 5.753906 0.421875 13.914062 0.421875 Z M 13.914062 0.421875 "/></g></g></g><g fill="#000000" fill-opacity="1"><g transform="translate(168.313137, 202.416496)"><g><path d="M 17.511719 -4.613281 C 15.898438 -3.300781 12.824219 -2.503906 10.441406 -2.457031 C 6.871094 -2.40625 5.308594 -3.894531 4.984375 -6.199219 C 7.539062 -6.277344 11.78125 -6.277344 17.414062 -6.175781 C 17.933594 -11.160156 14.039062 -13.816406 9.078125 -13.816406 C 4.042969 -13.816406 0.867188 -11.1875 0.867188 -6.722656 C 0.867188 -2.308594 3.96875 0.347656 9.996094 0.347656 C 12.648438 0.347656 15.402344 -0.171875 17.511719 -1.214844 C 17.289062 -2.132812 17.289062 -3.671875 17.511719 -4.613281 Z M 9.078125 -11.160156 C 11.460938 -11.160156 13.070312 -9.847656 13.371094 -7.390625 C 10.46875 -7.34375 7.316406 -7.34375 4.9375 -7.417969 C 5.058594 -9.871094 6.597656 -11.160156 9.078125 -11.160156 Z M 9.078125 -11.160156 "/></g></g></g><g fill="#000000" fill-opacity="1"><g transform="translate(187.013758, 202.416496)"><g><path d="M 1.539062 0 L 5.855469 0 L 5.855469 -5.359375 C 5.855469 -8.484375 7.316406 -10.664062 9.972656 -10.664062 C 12.304688 -10.664062 13.542969 -8.78125 13.542969 -5.828125 L 13.542969 0 L 17.757812 0 C 17.339844 -2.40625 17.4375 -5.457031 17.4375 -8.085938 C 17.4375 -11.160156 16.148438 -13.789062 12.304688 -13.789062 C 9.078125 -13.789062 6.671875 -11.535156 5.703125 -8.507812 L 5.359375 -8.507812 C 5.480469 -10.394531 5.679688 -11.90625 6.152344 -13.839844 C 5.109375 -13.371094 3.199219 -13.070312 1.539062 -12.972656 C 2.082031 -7.863281 2.082031 -3.917969 1.539062 0 Z M 1.539062 0 "/></g></g></g><g fill="#000000" fill-opacity="1"><g transform="translate(206.13601, 202.416496)"><g><path d="M 18.453125 -19.769531 C 17.363281 -19.296875 15.082031 -19.050781 13.742188 -18.949219 C 13.941406 -17.460938 14.164062 -14.683594 14.238281 -9.152344 L 13.914062 -9.152344 C 12.875 -11.558594 11.039062 -13.789062 7.464844 -13.789062 C 3.546875 -13.789062 0.867188 -11.0625 0.867188 -7.042969 C 0.867188 -2.726562 3.917969 0.398438 8.484375 0.398438 C 11.433594 0.398438 13.394531 -0.917969 14.3125 -3.375 C 14.285156 -2.109375 14.1875 -1.089844 14.039062 0 L 18.15625 0 C 17.609375 -3.449219 17.5625 -15.972656 18.453125 -19.769531 Z M 9.847656 -1.960938 C 7.167969 -1.960938 4.886719 -3.621094 4.886719 -6.796875 C 4.886719 -9.351562 6.425781 -11.0625 9.078125 -11.0625 C 12.824219 -11.0625 14.210938 -7.789062 14.3125 -4.738281 C 13.144531 -2.457031 11.3125 -1.960938 9.847656 -1.960938 Z M 9.847656 -1.960938 "/></g></g></g><g fill="#000000" fill-opacity="1"><g transform="translate(226.00232, 202.416496)"><g><path d="M 3.695312 -15.277344 C 5.53125 -15.277344 6.472656 -15.800781 6.472656 -16.992188 C 6.472656 -18.179688 5.53125 -18.75 3.695312 -18.75 C 2.007812 -18.75 1.140625 -18.179688 1.140625 -16.992188 C 1.140625 -15.800781 2.007812 -15.277344 3.695312 -15.277344 Z M 1.585938 -13.34375 C 1.910156 -8.753906 1.910156 -4.539062 1.585938 0 L 5.855469 0 C 5.554688 -4.5625 5.554688 -8.78125 5.855469 -13.34375 C 4.414062 -13.046875 3.074219 -13.097656 1.585938 -13.34375 Z M 1.585938 -13.34375 "/></g></g></g><g fill="#000000" fill-opacity="1"><g transform="translate(233.616499, 202.416496)"><g><path d="M 11.90625 0 L 17.585938 0 C 15.128906 -1.636719 12.328125 -5.058594 10.292969 -7.390625 C 13.566406 -8.679688 16.246094 -11.011719 16.917969 -13.691406 C 15.550781 -13.195312 12.921875 -13.121094 11.558594 -13.046875 C 11.210938 -10.515625 8.085938 -7.863281 5.457031 -7.515625 C 5.382812 -11.855469 5.53125 -16.542969 6.101562 -19.496094 C 4.761719 -18.976562 2.902344 -18.75 1.414062 -18.675781 C 1.984375 -14.164062 1.984375 -4.835938 1.414062 0 L 5.78125 0 C 5.65625 -1.660156 5.53125 -3.917969 5.480469 -6.375 C 5.976562 -6.375 6.5 -6.425781 6.996094 -6.523438 C 9.054688 -3.769531 10.863281 -1.984375 11.90625 0 Z M 11.90625 0 "/></g></g></g><g fill="#000000" fill-opacity="1"><g transform="translate(251.225849, 202.416496)"><g><path d="M 3.695312 -15.277344 C 5.53125 -15.277344 6.472656 -15.800781 6.472656 -16.992188 C 6.472656 -18.179688 5.53125 -18.75 3.695312 -18.75 C 2.007812 -18.75 1.140625 -18.179688 1.140625 -16.992188 C 1.140625 -15.800781 2.007812 -15.277344 3.695312 -15.277344 Z M 1.585938 -13.34375 C 1.910156 -8.753906 1.910156 -4.539062 1.585938 0 L 5.855469 0 C 5.554688 -4.5625 5.554688 -8.78125 5.855469 -13.34375 C 4.414062 -13.046875 3.074219 -13.097656 1.585938 -13.34375 Z M 1.585938 -13.34375 "/></g></g></g><g fill="#000000" fill-opacity="1"><g transform="translate(258.840028, 202.416496)"><g><path d="M 17.609375 0 C 16.941406 -2.15625 16.792969 -4.488281 16.765625 -7.664062 C 16.765625 -12.179688 13.941406 -13.765625 9.078125 -13.765625 C 5.828125 -13.765625 3.375 -12.972656 1.511719 -12.105469 C 1.6875 -11.261719 1.6875 -9.523438 1.511719 -8.558594 C 2.953125 -9.945312 5.628906 -10.988281 8.507812 -10.988281 C 12.078125 -10.988281 12.847656 -9.523438 12.972656 -7.292969 L 8.65625 -7.292969 C 3.570312 -7.292969 1.089844 -5.753906 1.089844 -3.324219 C 1.089844 -1.238281 2.828125 0.371094 6.449219 0.371094 C 9.847656 0.371094 11.632812 -0.992188 13.023438 -3.074219 C 13.097656 -2.082031 13.246094 -1.042969 13.59375 0 Z M 8.382812 -2.257812 C 6.351562 -2.257812 5.285156 -2.953125 5.285156 -4.140625 C 5.285156 -5.65625 7.21875 -6.25 10.890625 -6.25 L 12.996094 -6.25 L 12.996094 -5.828125 C 12.996094 -5.160156 12.972656 -4.414062 12.996094 -3.644531 C 11.730469 -2.804688 10.167969 -2.257812 8.382812 -2.257812 Z M 8.382812 -2.257812 "/></g></g></g><g fill="#000000" fill-opacity="1"><g transform="translate(142.246344, 220.709199)"><g><path d="M 1.28125 0 C 2.765625 0 4.230469 0.0117188 5.898438 0.0117188 C 7.984375 0.0117188 10.847656 -0.183594 10.847656 -2.363281 C 10.847656 -3.898438 9.578125 -4.546875 7.898438 -4.59375 L 7.898438 -4.691406 C 9.191406 -4.753906 10.25 -5.449219 10.25 -6.765625 C 10.25 -8.359375 8.871094 -8.984375 6.386719 -8.984375 L 1.28125 -8.984375 C 1.316406 -6.15625 1.316406 -2.828125 1.28125 0 Z M 2.011719 -4.851562 C 2.011719 -6.082031 2.011719 -7.203125 2.023438 -8.421875 L 6.386719 -8.421875 C 8.375 -8.421875 9.480469 -7.996094 9.480469 -6.679688 C 9.480469 -5.421875 8.484375 -4.851562 6.398438 -4.839844 C 4.984375 -4.839844 3.402344 -4.839844 2.011719 -4.851562 Z M 2.023438 -4.328125 C 3.402344 -4.339844 4.984375 -4.339844 6.398438 -4.339844 C 9.300781 -4.339844 10.054688 -3.496094 10.054688 -2.4375 C 10.054688 -1.402344 9.238281 -0.5625 6.007812 -0.5625 C 4.621094 -0.5625 3.289062 -0.574219 2.023438 -0.574219 Z M 2.023438 -4.328125 "/></g></g></g><g fill="#000000" fill-opacity="1"><g transform="translate(162.458497, 220.709199)"><g><path d="M 10.980469 0 C 9.421875 -2.9375 7.875 -5.960938 6.351562 -8.898438 C 5.960938 -8.859375 5.472656 -8.871094 5.09375 -8.898438 C 3.59375 -5.960938 2.058594 -2.9375 0.523438 0 L 1.339844 0 C 1.730469 -0.792969 2.121094 -1.570312 2.511719 -2.339844 C 4.410156 -2.351562 7.082031 -2.351562 8.984375 -2.339844 C 9.347656 -1.597656 9.566406 -1.132812 10.140625 0 Z M 2.777344 -2.863281 C 3.742188 -4.789062 4.691406 -6.679688 5.691406 -8.582031 C 7.433594 -5.351562 8.226562 -3.828125 8.714844 -2.863281 C 6.933594 -2.851562 4.558594 -2.851562 2.777344 -2.863281 Z M 2.777344 -2.863281 "/></g></g></g><g fill="#000000" fill-opacity="1"><g transform="translate(182.36596, 220.709199)"><g><path d="M 5.242188 0 L 6.007812 0 C 5.984375 -2.65625 5.972656 -5.546875 5.984375 -8.335938 C 7.714844 -8.324219 9.335938 -8.300781 10.945312 -8.261719 C 10.933594 -8.484375 10.933594 -8.679688 10.945312 -8.898438 C 7.324219 -8.871094 3.949219 -8.871094 0.316406 -8.898438 C 0.339844 -8.679688 0.339844 -8.484375 0.316406 -8.261719 C 1.914062 -8.300781 3.535156 -8.324219 5.253906 -8.335938 C 5.265625 -5.546875 5.265625 -2.65625 5.242188 0 Z M 5.242188 0 "/></g></g></g><g fill="#000000" fill-opacity="1"><g transform="translate(202.041859, 220.709199)"><g><path d="M 1.488281 0 L 2.253906 0 C 2.21875 -2.804688 2.21875 -6.09375 2.253906 -8.898438 C 2.035156 -8.871094 1.742188 -8.871094 1.488281 -8.898438 C 1.511719 -6.09375 1.511719 -2.816406 1.488281 0 Z M 1.488281 0 "/></g></g></g><g fill="#000000" fill-opacity="1"><g transform="translate(214.198022, 220.709199)"><g><path d="M 3.949219 -4.449219 L 3.949219 -4.496094 C 7.03125 -4.703125 9.8125 -6.546875 11.03125 -8.847656 C 10.726562 -8.824219 10.359375 -8.824219 10.105469 -8.847656 C 9.117188 -7.019531 6.898438 -4.644531 2.011719 -4.742188 C 2 -6.53125 2.011719 -6.386719 2.011719 -8.898438 C 1.792969 -8.871094 1.523438 -8.871094 1.28125 -8.898438 C 1.316406 -6.082031 1.316406 -2.816406 1.28125 0 L 2.046875 0 C 2.035156 -2.011719 2.023438 -3.316406 2.011719 -4.203125 C 7.375 -4.386719 9.59375 -1.363281 9.933594 0 L 10.8125 0 C 10.128906 -2.375 7.15625 -4.253906 3.949219 -4.449219 Z M 3.949219 -4.449219 "/></g></g></g><g fill="#000000" fill-opacity="1"><g transform="translate(234.247539, 220.709199)"><g/></g></g></svg>